<?xml version="1.0" encoding="utf-8"?>
<!-- Generator: Adobe Illustrator 19.0.0, SVG Export Plug-In . SVG Version: 6.00 Build 0)  -->
<svg version="1.1" xmlns="http://www.w3.org/2000/svg" xmlns:xlink="http://www.w3.org/1999/xlink" x="0px" y="0px"
	 viewBox="-6 9 86 83" style="enable-background:new -6 9 86 83;" xml:space="preserve">
<style type="text/css">
	.st0{fill:#FFFFFF;}
	.st1{fill:#FFA800;}
</style>
<g id="Layer_2">
	<ellipse class="st0" cx="38.8" cy="51" rx="22.2" ry="25.3"/>
</g>
<g id="Layer_1">
	<path class="st1" d="M37,9C13.3,9-6,27.6-6,50.5S13.3,92,37,92s43-18.6,43-41.5S60.7,9,37,9z M54.1,52L29,67.5
		c-0.3,0.2-0.6,0.3-1,0.3c-0.3,0-0.6-0.1-0.9-0.2c-0.6-0.3-0.9-0.9-0.9-1.5V34.9c0-0.6,0.4-1.2,0.9-1.5c0.6-0.3,1.3-0.3,1.8,0.1
		L54.1,49c0.5,0.3,0.8,0.9,0.8,1.5S54.6,51.6,54.1,52z"/>
</g>
</svg>
